<?xml version="1.0" standalone="no"?>
<!DOCTYPE svg PUBLIC "-//W3C//DTD SVG 20010904//EN"
 "http://www.w3.org/TR/2001/REC-SVG-20010904/DTD/svg10.dtd">
<svg version="1.0" xmlns="http://www.w3.org/2000/svg"
 width="1152.000000pt" height="1152.000000pt" viewBox="0 0 1152.000000 1152.000000"
 preserveAspectRatio="xMidYMid meet">
<metadata>
Created by potrace 1.14, written by Peter Selinger 2001-2017
</metadata>
<g transform="translate(0.000000,1152.000000) scale(0.100000,-0.100000)"
fill="#000000" stroke="none">
<path d="M7407 11514 c-1 -1 -42 -5 -92 -8 -49 -4 -108 -9 -130 -11 -22 -3
-58 -7 -80 -9 -22 -2 -65 -8 -95 -12 -30 -4 -66 -8 -80 -10 -14 -1 -25 -3 -25
-4 0 -2 -9 -4 -20 -5 -11 -2 -33 -6 -50 -9 -16 -4 -48 -9 -70 -12 -22 -3 -47
-8 -55 -11 -8 -3 -26 -7 -40 -9 -33 -5 -65 -12 -65 -14 0 -1 -9 -3 -20 -4 -38
-6 -285 -74 -335 -93 -8 -3 -20 -7 -26 -8 -25 -6 -62 -17 -109 -35 -27 -10
-84 -31 -125 -46 -41 -14 -95 -36 -120 -47 -25 -11 -51 -20 -57 -20 -7 0 -13
-4 -13 -9 0 -4 -3 -7 -7 -6 -17 3 -329 -147 -468 -227 -117 -66 -250 -149
-253 -157 -2 -4 -7 -8 -12 -8 -8 0 -200 -128 -210 -140 -3 -3 -30 -23 -60 -45
-30 -22 -57 -42 -60 -45 -3 -3 -27 -23 -55 -45 -27 -22 -58 -47 -68 -55 -151
-123 -384 -349 -516 -500 -41 -47 -77 -87 -80 -90 -4 -3 -31 -36 -61 -75 -30
-38 -57 -72 -60 -75 -3 -3 -23 -30 -45 -60 -22 -30 -42 -57 -45 -60 -15 -15
-60 -80 -60 -88 0 -6 -3 -12 -7 -14 -11 -5 -116 -164 -195 -297 -59 -99 -243
-451 -239 -458 0 -2 -11 -29 -24 -60 -14 -31 -28 -67 -31 -80 -4 -13 -10 -23
-15 -23 -5 0 -8 -3 -7 -7 0 -5 -2 -17 -7 -28 -26 -68 -68 -182 -70 -190 -1 -5
-5 -17 -8 -25 -14 -37 -76 -235 -83 -265 -1 -5 -12 -48 -24 -95 -24 -92 -28
-111 -36 -150 -3 -14 -7 -33 -10 -42 -3 -10 -7 -30 -10 -45 -4 -29 -15 -90
-19 -108 -3 -12 -13 -70 -21 -122 -3 -21 -8 -51 -10 -68 -3 -16 -7 -50 -10
-75 -2 -25 -6 -58 -9 -75 -7 -54 -15 -168 -20 -293 -3 -68 -7 -127 -10 -132
-3 -5 -1 -11 5 -15 6 -4 7 -11 4 -17 -8 -12 -11 -128 -4 -128 3 0 5 -48 6
-108 1 -98 11 -282 19 -321 1 -9 6 -43 9 -76 8 -66 9 -77 26 -185 13 -83 17
-107 26 -147 4 -16 8 -39 9 -53 2 -14 4 -25 5 -25 2 0 8 -24 16 -65 5 -31 32
-138 66 -265 5 -22 14 -49 18 -60 21 -57 70 -215 70 -229 0 -9 4 -16 9 -16 5
0 13 -15 16 -32 7 -33 39 -116 76 -195 10 -24 19 -45 19 -47 0 -26 215 -450
261 -518 11 -14 19 -29 19 -32 0 -9 124 -201 132 -204 5 -2 8 -8 8 -13 0 -11
42 -72 53 -77 4 -2 7 -10 7 -17 0 -7 3 -15 8 -17 4 -1 32 -37 62 -78 30 -41
57 -77 60 -80 3 -3 21 -25 40 -50 48 -62 61 -77 95 -116 17 -18 40 -46 52 -61
12 -15 52 -61 90 -100 37 -40 73 -78 79 -85 35 -40 274 -262 344 -320 25 -20
55 -44 66 -55 12 -10 36 -29 54 -43 18 -14 38 -30 44 -35 6 -6 28 -21 48 -35
21 -14 38 -28 38 -32 0 -5 6 -8 14 -8 8 0 16 -4 18 -9 2 -4 66 -50 143 -101
77 -51 152 -101 167 -111 15 -11 29 -19 32 -19 2 0 50 -27 105 -60 56 -33 108
-60 116 -60 8 0 15 -4 15 -10 0 -5 7 -10 15 -10 8 0 15 -5 15 -10 0 -6 3 -9 8
-8 4 1 50 -18 102 -44 110 -54 229 -108 236 -108 3 0 24 -8 47 -19 60 -27 284
-109 320 -117 4 -1 9 -3 12 -4 3 -1 10 -4 15 -5 6 -1 12 -4 15 -5 3 -1 8 -3
13 -4 4 -1 41 -13 82 -25 41 -13 89 -26 105 -28 17 -3 37 -8 45 -13 15 -7 156
-41 195 -46 11 -1 20 -3 20 -4 0 -2 9 -4 20 -6 11 -1 31 -5 45 -8 61 -13 87
-17 110 -21 14 -2 41 -6 60 -9 183 -28 197 -29 330 -41 41 -3 98 -8 125 -10
47 -4 267 -9 291 -6 6 1 10 39 9 107 0 58 3 108 7 110 5 3 5 11 1 17 -12 19
-10 217 2 217 7 0 7 3 0 8 -7 4 -11 59 -11 137 0 78 4 133 11 137 7 5 7 8 0 8
-7 0 -10 37 -10 98 1 53 0 102 -2 107 -2 6 -42 11 -91 13 -123 3 -309 16 -377
26 -16 3 -50 8 -75 11 -40 5 -68 10 -135 22 -11 2 -33 5 -50 7 -16 2 -50 9
-75 16 -25 7 -56 14 -70 16 -14 2 -47 10 -75 18 -42 13 -113 32 -150 42 -66
17 -162 50 -167 58 -4 6 -8 8 -8 4 0 -6 -146 48 -235 87 -22 10 -45 19 -52 21
-7 1 -88 41 -180 89 -92 49 -178 93 -190 99 -13 6 -23 14 -23 19 0 4 -7 7 -15
7 -8 0 -15 5 -15 10 0 6 -5 10 -11 10 -6 0 -30 14 -54 30 -24 17 -48 30 -54
30 -6 0 -11 5 -11 10 0 6 -7 10 -15 10 -8 0 -15 3 -15 8 0 4 -25 23 -55 42
-30 19 -55 38 -55 43 0 4 -4 7 -10 7 -10 0 -37 20 -72 52 -10 10 -18 16 -18
13 0 -6 -7 -1 -64 50 -19 17 -51 44 -72 60 -97 78 -349 329 -424 423 -14 18
-36 45 -50 60 -29 33 -38 45 -100 127 -25 33 -48 62 -52 63 -5 2 -8 9 -8 15
-1 7 -14 28 -30 47 -17 19 -30 40 -30 46 0 7 -3 14 -8 16 -4 2 -27 35 -51 73
-24 39 -51 81 -61 95 -9 14 -34 59 -54 100 -21 41 -43 78 -48 81 -5 3 -10 10
-10 15 -1 15 -42 99 -53 106 -5 4 -7 8 -2 8 4 0 -3 19 -15 43 -12 23 -23 44
-23 47 -1 5 -8 19 -42 100 -38 88 -99 262 -109 309 -3 14 -8 29 -12 35 -3 6
-7 16 -8 21 -1 6 -18 72 -38 147 -20 75 -38 151 -41 168 -3 16 -8 45 -11 63
-6 34 -13 79 -19 114 -2 12 -6 34 -9 50 -3 15 -7 47 -8 71 -1 23 -4 42 -7 42
-4 0 -7 26 -8 58 -3 133 -10 243 -16 248 -3 3 -2 16 3 29 5 13 6 25 3 28 -9
10 -2 289 11 412 3 22 8 74 11 115 4 41 9 78 11 81 2 3 6 28 9 55 6 50 12 89
15 89 1 0 3 16 6 35 2 19 8 55 14 80 6 25 12 54 15 65 2 11 16 63 30 115 14
52 28 106 31 120 3 13 10 30 16 37 6 7 8 13 5 13 -5 0 50 169 74 225 7 17 13
32 14 35 1 3 9 22 18 44 9 21 17 45 17 52 0 8 5 14 10 14 6 0 10 8 10 18 0 10
3 22 8 26 4 4 7 11 7 14 1 13 39 87 48 93 5 3 9 9 9 12 -1 15 32 87 39 87 4 0
10 13 14 29 3 16 13 35 21 42 8 6 14 15 14 19 0 8 30 58 119 205 49 79 56 90
62 95 3 3 24 33 47 66 23 34 47 68 54 75 8 8 25 30 38 49 13 19 27 37 30 40 3
3 39 46 80 95 98 117 330 349 450 449 52 44 97 83 98 88 2 4 8 8 14 8 6 0 22
10 37 23 15 12 40 31 55 42 16 11 34 26 41 33 8 6 18 12 24 12 6 0 11 5 11 10
0 6 5 10 10 10 6 0 20 8 31 18 10 11 32 25 47 33 15 8 29 16 32 19 13 13 229
140 239 140 6 0 11 5 11 10 0 6 8 10 18 10 9 0 28 9 42 20 14 11 28 20 32 20
13 0 163 74 169 83 3 5 10 8 15 7 5 0 25 6 44 14 151 63 392 147 460 161 8 2
15 4 15 5 0 2 11 4 50 13 11 3 47 12 80 20 75 20 259 57 305 62 68 8 125 16
155 20 43 7 159 16 241 19 39 1 75 6 81 9 7 4 14 3 18 -3 4 -7 12 -7 25 0 10
6 21 6 24 1 3 -4 16 -6 29 -4 22 4 23 7 22 115 0 60 3 112 7 114 5 3 5 11 1
17 -12 18 -10 211 2 219 7 5 7 8 0 8 -12 0 -14 218 -2 237 4 6 4 14 -1 17 -4
2 -8 57 -7 121 l1 116 -134 -3 c-73 -2 -134 -4 -135 -4z"/>
<path d="M7576 9603 c-1 -1 -44 -5 -96 -8 -52 -4 -106 -8 -120 -10 -38 -6
-122 -18 -145 -20 -11 -1 -31 -5 -45 -8 -14 -4 -38 -9 -55 -11 -16 -3 -41 -8
-55 -11 -14 -3 -36 -8 -50 -11 -14 -3 -29 -7 -35 -8 -5 -1 -37 -10 -70 -20
-33 -10 -67 -19 -75 -21 -22 -4 -178 -60 -225 -80 -67 -29 -90 -38 -95 -39
-10 -2 -245 -119 -250 -125 -3 -3 -15 -12 -28 -18 -12 -7 -32 -19 -44 -25 -23
-14 -204 -134 -222 -149 -33 -26 -130 -102 -148 -117 -58 -47 -254 -239 -305
-299 -10 -12 -27 -32 -38 -44 -11 -13 -39 -48 -62 -79 -24 -30 -47 -59 -51
-65 -30 -37 -122 -174 -122 -182 0 -5 -8 -18 -18 -29 -10 -10 -31 -45 -47 -76
-16 -32 -33 -58 -37 -58 -4 0 -8 -9 -8 -19 0 -11 -8 -27 -17 -37 -10 -10 -17
-19 -16 -21 1 -1 -12 -33 -29 -70 -18 -38 -32 -70 -33 -73 0 -3 -11 -27 -23
-54 -26 -58 -110 -308 -118 -350 -3 -16 -7 -32 -9 -36 -2 -4 -7 -21 -10 -38
-3 -18 -12 -60 -20 -94 -8 -35 -17 -85 -21 -113 -3 -27 -8 -59 -11 -70 -6 -29
-16 -162 -17 -222 -1 -29 -4 -53 -8 -53 -4 0 -4 -11 1 -23 5 -13 6 -29 2 -36
-9 -15 -8 -92 2 -108 5 -7 4 -13 0 -13 -5 0 -8 -12 -7 -27 1 -16 3 -28 4 -28
1 0 3 -34 5 -75 4 -96 16 -203 30 -270 2 -14 7 -39 10 -57 6 -39 33 -160 41
-188 4 -11 7 -30 8 -42 0 -13 4 -23 9 -23 4 0 7 -7 7 -16 0 -25 64 -211 111
-321 45 -107 111 -243 153 -313 15 -25 29 -53 33 -62 3 -10 9 -18 14 -18 5 0
9 -7 9 -15 0 -8 5 -15 10 -15 6 0 10 -4 10 -9 0 -9 47 -83 72 -116 4 -5 33
-44 64 -85 31 -41 64 -83 73 -92 9 -9 27 -31 41 -48 78 -98 332 -335 444 -415
16 -11 33 -24 40 -30 6 -5 45 -32 86 -60 41 -27 77 -52 80 -55 3 -3 18 -12 35
-20 16 -8 57 -31 90 -51 150 -88 472 -224 577 -243 14 -2 36 -10 48 -16 12 -6
24 -9 27 -6 3 3 13 1 23 -4 9 -5 28 -11 41 -14 13 -3 35 -8 49 -11 14 -3 48
-10 75 -15 28 -5 66 -12 85 -16 19 -4 50 -8 68 -8 17 -1 32 -3 32 -6 0 -4 10
-6 23 -7 12 0 60 -3 107 -7 155 -13 239 -14 243 -2 2 6 3 36 2 66 0 30 4 58
10 62 7 5 7 8 0 8 -12 0 -14 218 -3 236 4 6 4 14 0 18 -11 12 -9 210 3 218 7
5 7 8 0 8 -12 0 -14 218 -3 236 4 6 4 14 0 18 -11 12 -9 210 3 218 7 5 7 8 0
8 -12 0 -14 218 -3 236 4 6 4 14 0 18 -11 12 -9 210 3 218 7 5 7 8 0 8 -12 0
-14 218 -3 236 4 6 4 14 0 18 -11 12 -9 216 3 216 7 0 7 3 0 8 -14 10 -14 284
0 294 6 5 7 8 0 8 -12 0 -14 378 -3 396 4 6 4 14 0 18 -3 4 -7 27 -7 51 -1 32
3 45 14 47 9 2 656 3 1439 3 982 -1 1422 2 1423 10 5 38 -3 187 -18 330 -3 33
-6 72 -7 88 -1 15 -3 27 -6 27 -3 0 -7 14 -8 30 -1 17 -9 58 -17 92 -8 34 -12
65 -9 70 3 4 0 8 -7 8 -7 0 -10 3 -6 6 3 3 -1 29 -10 57 -8 28 -16 58 -18 66
-8 40 -58 187 -66 196 -5 5 -9 19 -9 32 0 13 -5 23 -11 23 -5 0 -8 3 -6 8 3 4
0 18 -6 32 -5 14 -11 31 -13 39 -1 8 -9 18 -16 22 -7 5 -10 9 -6 9 4 0 -18 50
-48 110 -29 61 -54 115 -54 120 0 6 -3 10 -8 10 -4 0 -18 21 -31 48 -129 249
-454 626 -706 819 -27 21 -55 43 -61 48 -6 6 -22 17 -34 25 -12 8 -41 29 -64
46 -22 17 -57 39 -76 50 -19 10 -37 22 -40 25 -17 20 -322 179 -344 179 -8 0
-19 7 -26 15 -6 8 -15 14 -18 13 -7 -1 -27 6 -77 27 -46 19 -157 56 -185 62
-13 2 -29 8 -35 12 -5 4 -37 14 -70 21 -33 7 -66 18 -72 23 -7 5 -13 7 -13 4
0 -3 -36 3 -80 13 -44 10 -83 18 -85 19 -3 1 -6 1 -7 2 -2 0 -14 2 -28 3 -78
8 -151 17 -172 21 -27 6 -244 18 -273 15 -24 -2 -28 -1 -83 2 -24 2 -45 2 -46
1z"/>
<path d="M963 6717 c-4 -7 4 -346 12 -442 19 -243 22 -278 29 -315 2 -14 7
-54 10 -89 4 -35 8 -73 11 -85 2 -11 7 -39 10 -61 15 -117 27 -182 72 -395 18
-91 46 -210 60 -265 14 -54 26 -104 28 -110 1 -5 4 -17 7 -25 7 -18 31 -100
34 -115 7 -35 68 -222 75 -231 5 -6 6 -14 2 -17 -3 -4 -1 -12 4 -19 6 -7 16
-31 22 -53 7 -22 15 -47 18 -55 4 -8 7 -17 8 -20 2 -12 67 -178 80 -205 7 -16
23 -54 35 -84 11 -30 30 -75 42 -100 11 -25 29 -66 40 -91 36 -82 216 -437
242 -478 14 -23 26 -44 26 -46 0 -8 137 -233 188 -311 26 -38 49 -74 52 -80 8
-15 84 -129 91 -135 3 -3 21 -27 39 -55 19 -27 37 -51 42 -53 4 -2 8 -10 8
-17 0 -7 3 -15 8 -17 4 -1 27 -30 52 -63 50 -67 192 -246 227 -285 12 -14 31
-36 42 -50 184 -222 592 -624 806 -793 61 -48 161 -133 167 -142 5 -6 8 -6 8
0 0 6 3 6 8 -1 4 -5 25 -23 47 -40 22 -16 46 -34 55 -41 64 -50 112 -83 119
-83 5 0 11 -4 13 -9 4 -11 335 -231 348 -231 5 0 10 -4 10 -9 0 -5 8 -11 18
-14 17 -6 72 -37 82 -47 5 -5 26 -17 110 -64 30 -16 73 -40 95 -52 22 -13 83
-44 135 -71 52 -26 97 -51 98 -55 2 -5 11 -8 21 -8 9 0 21 -4 27 -9 10 -10
264 -127 294 -136 3 -1 23 -9 45 -19 200 -88 732 -270 855 -292 14 -3 32 -7
40 -11 15 -6 26 -9 70 -17 14 -2 25 -5 25 -6 0 -1 9 -3 21 -5 11 -3 60 -14
110 -25 79 -19 130 -30 214 -45 14 -3 36 -7 50 -10 13 -2 40 -7 60 -10 19 -3
60 -9 90 -14 30 -5 58 -7 63 -4 4 2 7 0 7 -5 0 -5 12 -9 28 -10 15 0 29 -1 32
-2 3 -1 23 -3 45 -5 22 -1 40 -4 40 -5 0 -2 39 -6 100 -11 22 -1 44 -4 48 -7
5 -2 43 -6 85 -8 42 -3 95 -7 117 -9 22 -2 142 -7 266 -11 l225 -7 -1 107 c0
59 3 110 7 112 5 3 5 11 1 17 -12 19 -10 217 2 217 7 0 7 3 0 8 -7 4 -11 59
-11 137 0 78 4 133 11 137 7 5 7 8 0 8 -7 0 -10 37 -10 98 1 53 0 102 -2 108
-2 6 -47 11 -116 12 -62 1 -148 5 -192 7 -158 10 -200 13 -200 15 0 0 -27 3
-60 5 -58 4 -91 8 -185 20 -66 9 -112 16 -137 21 -33 6 -74 13 -108 19 -16 3
-41 8 -55 11 -14 2 -41 6 -61 8 -20 2 -41 6 -45 9 -8 4 -56 15 -139 31 -35 7
-299 76 -325 85 -14 5 -45 14 -70 22 -25 7 -49 15 -55 18 -5 3 -15 6 -21 7
-11 2 -122 39 -154 51 -8 4 -18 7 -22 8 -5 2 -10 4 -13 5 -3 1 -8 3 -12 5 -5
1 -17 5 -28 9 -11 4 -45 17 -75 29 -30 11 -59 24 -64 29 -6 4 -15 8 -22 8 -6
0 -29 8 -50 17 -22 9 -42 16 -46 15 -5 -1 -8 2 -8 8 0 6 -3 9 -7 8 -11 -2 -33
8 -133 56 -47 22 -87 41 -90 41 -14 3 -106 51 -111 58 -3 5 -9 8 -13 8 -7 -1
-85 37 -143 71 -133 76 -204 117 -247 143 -132 81 -435 290 -481 332 -11 10
-56 45 -100 78 -43 33 -88 69 -99 80 -12 11 -34 31 -51 43 -93 73 -425 396
-530 516 -27 32 -57 65 -66 74 -8 10 -43 51 -78 92 -34 41 -73 87 -86 103 -14
15 -23 27 -20 27 3 0 -3 8 -12 18 -10 10 -27 31 -38 46 -11 16 -24 33 -30 40
-23 26 -95 126 -95 131 0 4 -6 13 -12 20 -22 24 -31 38 -79 110 -109 166 -239
380 -239 394 0 5 -7 14 -15 21 -8 7 -13 16 -10 20 3 5 1 10 -3 12 -5 1 -49 85
-99 185 -90 180 -117 241 -114 256 0 4 -3 7 -9 7 -5 0 -10 8 -10 18 0 10 -4
22 -8 28 -9 9 -96 223 -97 236 0 3 -3 10 -7 14 -5 4 -8 17 -8 30 0 12 -3 24
-7 26 -6 2 -69 179 -78 218 -1 3 -7 23 -13 45 -6 22 -11 42 -11 45 1 3 -6 23
-15 45 -8 22 -25 78 -37 125 -25 103 -29 119 -35 145 -2 11 -17 81 -33 155
-16 74 -32 153 -35 175 -4 22 -11 66 -17 99 -6 32 -8 64 -5 72 3 8 2 14 -3 14
-4 0 -9 12 -10 28 -3 50 -9 107 -11 107 -8 0 -32 325 -34 452 0 51 -5 93 -9
93 -4 0 -4 8 2 17 5 10 5 26 0 40 -5 15 -5 23 2 23 6 0 6 6 0 19 -6 10 -7 21
-4 25 9 8 39 8 -480 9 -258 1 -471 -1 -474 -6z"/>
</g>
</svg>
